<svg xmlns="http://www.w3.org/2000/svg" width="252" height="413" fill="none"><g clip-path="url(#a)"><path fill="#0C2340" stroke="#0C2340" stroke-linecap="round" stroke-linejoin="round" stroke-width="1.231" d="M158.323 19.006c-2.911-7.295-10.985-12.652-22.651-10.79-13.905 2.22-43.212 20.7-41.725 35.898.732 7.472 5.86 7.807 8.827 9.514 3.172 1.825 1.778 5.177 4.327 6.913 3.101 2.113 5.859.062 8.47 1.12 2.445.993 3.162 5.38 9.432 4.256 2.958-.53 22.321-2.994 26.136-1.975 3.162.845 5.63.547 7.322-.569 2.29-1.512 2.157-3.056 3.952-5.17 2.372-2.792 9.416-1.738 9.253-11.033-.204-11.772-19.321-17.158-19.321-17.158l5.975-11.004.003-.002Z"/><path fill="#BC8F9D" d="m153.691 69.013-1.453-8.617-1.507-8.942-.488-2.902c-.017-.076-21.517-12.767-21.517-12.767.404 17.925-5.039 34.403-5.039 34.403-3.278 19.013 33.994 17.471 30.007-1.175h-.003Z"/><path fill="#0C2340" d="M138.646 50.937c1.524 5.701 7.462 9.848 13.594 9.462l-1.507-8.943c-7.221 2.172-9.676-.11-11.558-.958a.382.382 0 0 0-.529.441v-.002Z"/><path fill="#BC8F9D" d="M138.19 49.134c1.682 1.73 6.07 4.098 10.806 3.541 10.362-1.214 15.314-18.949 9.322-33.669-2.45-.727-12.898-2.239-20.924 1.236-1.285 6.746-5.041 6.845-5.041 6.845s-3.67 12.254 5.837 22.044v.003Z"/><path fill="#BC8F9D" d="M138.474 48.86c2.94 2.733 7.519 4.056 11.447 3.226 6.268-1.609 9.08-8.561 10.023-14.403a35.21 35.21 0 0 0-2.191-18.446l.394.357c-.793-.222-1.665-.377-2.522-.508-5.997-.815-12.354-.652-18.008 1.665l.325-.406c-.532 2.633-1.668 5.66-4.296 6.888-.413.183-.812.31-1.278.343l.456-.35c-1.97 7.56.111 16.057 5.647 21.633h.003Zm-.562.546c-5.77-5.758-7.972-14.592-6.026-22.458l.088-.32.37-.03c2.866-.557 4.019-3.886 4.509-6.457l.054-.289.271-.118c6.147-2.687 14.836-2.87 21.321-1.318l.283.082.111.276c3.174 7.999 3.635 17.284.335 25.312-1.66 3.965-4.721 7.844-9.115 8.825-4.214.876-9.085-.56-12.198-3.505h-.003Z"/><path fill="#BC8F9D" d="M131.239 37.713c2.669-1.357 3.348-5.376 1.517-8.977-1.83-3.601-5.478-5.42-8.147-4.064-2.668 1.357-3.347 5.376-1.517 8.977 1.831 3.601 5.479 5.42 8.147 4.064Z"/><path stroke="#0C2340" stroke-linecap="round" stroke-linejoin="round" stroke-width="1.268" d="M133.398 30.323a9.816 9.816 0 0 0-.445-1.182c-1.665-3.677-5.264-5.738-8.039-4.606-2.776 1.133-3.677 5.034-2.012 8.709 1.665 3.677 5.263 5.738 8.038 4.605"/><path stroke="#0C2340" stroke-linecap="round" stroke-linejoin="round" stroke-width="1.231" d="M126.41 27.123c2.288.429 4.123 3.051 4.401 5.418"/><path fill="#0C2340" d="M142.909 29.595c-.207-.672.906-2.38 3.273-2.744 1.724-.266 3.598.68 3.086 2.197-.315.934-1.295 1.165-3.086 1.212-1.79.047-3.059.024-3.27-.665h-.003ZM160.113 30.036c.23-.635-.761-2.327-3.019-2.783-1.645-.332-3.487.49-3.064 1.97.261.912 1.192 1.178 2.909 1.303 1.63.12 2.936.163 3.172-.49h.002ZM140.96 24.206c.438.62 1.839.655 3.573-.182 1.562-.754 2.631-2.074 2.17-3.3-.611-1.621-3.01-.914-4.418.182-1.537 1.194-1.81 2.613-1.323 3.302l-.002-.002ZM160.116 25.121c-.49.53-1.813.384-3.345-.62-1.381-.907-2.226-2.284-1.642-3.38.773-1.448 2.948-.482 4.14.725 1.303 1.317 1.386 2.686.844 3.273l.003.002Z"/><path stroke="#0C2340" stroke-linecap="round" stroke-linejoin="round" stroke-width="1.231" d="M153.889 24.434c-.919 2.026-.84 5.137 1.116 6.913 1.955 1.775.162 3.765-2.939 3.435"/><path stroke="#BC8F9D" stroke-linecap="round" stroke-linejoin="round" stroke-width=".985" d="m150.367 51.373 1.515 9.45"/><path fill="#fff" stroke="#0C2340" stroke-linecap="round" stroke-linejoin="round" stroke-width="1.268" d="M123.715 16.801C126.855 9.736 134.591 5.9 141.4 7.83c-4.96.796-9.6 4.207-11.858 9.293-1.406 3.162-1.662 6.462-.953 9.42l-5.017 2.059c-1.576-3.488-1.657-7.756.141-11.8h.002Z"/><path fill="#fff" stroke="#0C2340" stroke-linecap="round" stroke-linejoin="round" stroke-width="1.268" d="M126.499 43.091c4.63-.54 7.837-5.648 7.165-11.41-.673-5.76-4.971-9.992-9.601-9.45-4.63.54-7.838 5.648-7.165 11.409.672 5.76 4.971 9.992 9.601 9.451Z"/><path fill="#fff" stroke="#0C2340" stroke-linecap="round" stroke-linejoin="round" stroke-width="1.268" d="M123.379 42.4c3.642-.16 6.404-4.638 6.168-10.002-.235-5.365-3.378-9.585-7.019-9.425-3.642.16-6.404 4.638-6.169 10.003.236 5.364 3.378 9.584 7.02 9.424Z"/><path fill="#fff" stroke="#0C2340" stroke-linecap="round" stroke-linejoin="round" stroke-width="1.231" d="m151.889 39.9-7.337-5.601s-1.909 3.997 1.056 6.472c2.966 2.475 6.281-.874 6.281-.874v.002Z"/><path fill="#BC8F9D" d="m172.368 69.158-.069.089c-20.059 21.508-56.198 12.457-65.065.77l-.396-.16c8.839-3.354 17.552-2.112 24.722 4.727 3.765 3.59 14.725-1.064 20.323-4.288 7.11-4.093 14.028-3.913 20.485-1.138Z"/><path stroke="#0C2340" stroke-linecap="round" stroke-linejoin="round" stroke-width="1.231" d="M124.186 69.68c3.1 1.357 6.046 3.598 7.053 4.603"/><path fill="#D0BBF0" stroke="#D0BBF0" stroke-linecap="round" stroke-linejoin="round" stroke-width="1.231" d="m235.01 64.695-20.491-2.48c-.871-.106-1.502-.958-1.403-1.906l4.181-40.66c.099-.949.885-1.629 1.756-1.525l20.491 2.48c.872.106 1.502.958 1.404 1.906l-4.182 40.661c-.099.948-.884 1.628-1.756 1.524Z"/><path fill="#0C2340" stroke="#0C2340" stroke-linecap="round" stroke-linejoin="round" stroke-width="1.231" d="m237.992 24.092-6.437-.719-.719 6.437 6.437.719.719-6.437Z"/><path stroke="#fff" stroke-linecap="round" stroke-linejoin="round" stroke-width="1.231" d="m220.682 18.322-4.364 44.112"/><path fill="#BC8F9D" d="m102.642 123.558.037.047c-7.293 12.469-12.566 28.315-14.22 47.847-2.237 26.397-12.765 34.834-19.307 38.021-6.538 3.185-18.444 3.606-16.431 1.426-3.606 1.005-8.133.754-6.79-1.677-7.044 0 1.84-5.785 10.56-13.58-.096.042-3.234 1.441-11.651 2.596-8.551 1.175.167-4.108 8.718-10.396 8.553-6.287 7.359-22.426 9.245-48.271 1.01-13.846 4.566-24.931 9.797-34.555 4.414 1.48 21.37 7.957 30.042 18.542Z"/><path stroke="#0C2340" stroke-linecap="round" stroke-linejoin="round" stroke-width="1.231" d="M46.523 209.09c3.9-.796 12.443-3.978 15.794-6.408M53.291 210.781c4.394-.857 10.7-3.081 13.265-4.83"/><path fill="#0C2340" d="M59.842 302.797c-12.45 1.463-9.932-41.023-9.932-41.023 6.598 9.784 17.646 40.116 9.932 41.023ZM156.615 364.115c-19.963-8.174-40.496-9.194-41.311-2.15-.815 7.044 24.835 5.862 41.311 2.15Z"/><path fill="#BC8F9D" d="M156.615 364.115s-.655 3.093-1.436 6.765c-1.069 5.049-2.372 11.191-2.509 11.858a1.912 1.912 0 0 0-.015.062l-.003.007c-2.329 5.707-17.136 11.379-28.142-3.911l.015-.118.014-.123c0-.027.008-.054.01-.084.005-.029.008-.061.012-.096.005-.032.01-.066.013-.103l.022-.19c.002-.005.002-.01.002-.015.01-.073.018-.152.028-.233.012-.106.024-.22.039-.34.202-1.69.576-4.857.997-8.475.921-7.928 2.057-18.015 2.049-19.459 0 0 26.764 3.85 28.904 14.455Z"/><path fill="#31EAC4" d="M155.179 370.882c-1.069 5.049-2.372 11.191-2.509 11.859l-.015.061c-.003.005-.003.008-.003.008-2.329 5.706-17.136 11.378-28.142-3.911l.015-.119.014-.123c0-.027.008-.054.01-.083.005-.03.008-.062.012-.096.005-.032.01-.067.013-.104l.022-.19c.002-.004.002-.009.002-.014.01-.074.018-.153.028-.234.012-.106.024-.219.039-.34.202-1.69.576-4.857.997-8.475l29.517 1.761Z"/><path fill="#0C2340" stroke="#0C2340" stroke-linecap="round" stroke-linejoin="round" stroke-width="1.231" d="m124.503 378.896-2.382 24.096 66.964.726c-.643-3.558-2.374-7.674-6.618-10.55-9.05-6.143-20.397-1.875-29.819-10.364-15.587 9.935-20.828-4.317-28.143-3.908h-.002Z"/><path fill="#fff" stroke="#0C2340" stroke-linecap="round" stroke-linejoin="round" stroke-width="1.231" d="M154.852 395.332c4.133 1.911 6.431 5.428 6.409 7.992l-39.142-.33s1.547-15.614 1.549-15.664c6.972.616 8.859 7.766 23.35 6.682 3.059-.229 5.692.33 7.834 1.322v-.002Z"/><path stroke="#fff" stroke-linecap="round" stroke-linejoin="round" stroke-width="1.231" d="M157.207 385.949c-3.334 1.554-5.475 4.49-5.475 4.49M164.175 388.215c-3.82 1.071-6.337 4.428-6.337 4.428M171.391 389.408c-4.345 1.101-7.768 5.263-7.768 5.263"/><path stroke="#fff" stroke-linecap="round" stroke-linejoin="round" stroke-width="2.463" d="m152.526 377.112-26.315-1.862"/><path fill="#fff" stroke="#0C2340" stroke-linecap="round" stroke-linejoin="round" stroke-width="1.231" d="m122.124 402.994-.796 7.517 67.819.564s.67-3.32-.059-7.354l-66.964-.727Z"/><path fill="#BC8F9D" d="M31.662 262.921c-13.026 13.609-4.748 27.132 1.288 28.383h.008c.209.015 5.723.414 12.255.892 9.735.712 21.729 1.606 21.79 1.685-1.152-11.022-6.009-33.143-6.009-33.143-2.376.454-11.934 1.119-19.498 1.596h-.01c-5.423.343-9.821.587-9.821.587h-.003Z"/><path fill="#31EAC4" d="M31.662 262.921c-13.026 13.609-4.748 27.133 1.288 28.384h.008c.209.015 5.723.414 12.255.891l-3.717-29.864h-.01c-5.423.343-9.821.586-9.821.586l-.003.003Z"/><path fill="#0C2340" stroke="#0C2340" stroke-linecap="round" stroke-linejoin="round" stroke-width="1.231" d="m31.661 262.92-24.128 2.052 11.494 65.973c3.382-1.28 7.113-3.733 9.17-8.43 4.388-10.018-1.877-20.397 4.752-31.211-12.61-13.516.449-21.266-1.288-28.384Z"/><path fill="#fff" stroke="#0C2340" stroke-linecap="round" stroke-linejoin="round" stroke-width="1.231" d="M21.034 295.759c-1.125 4.411-4.164 7.312-6.689 7.758l-6.812-38.546s15.634-1.325 15.683-1.332c.665 6.967-6.019 10.124-2.312 24.177.783 2.966.712 5.657.128 7.943h.002Z"/><path stroke="#fff" stroke-linecap="round" stroke-linejoin="round" stroke-width="1.231" d="M30.688 296.361c-2.138-2.995-5.41-4.564-5.41-4.564M29.728 303.621c-1.748-3.562-5.51-5.423-5.51-5.423M29.876 310.935c-1.875-4.071-6.59-6.679-6.59-6.679"/><path stroke="#fff" stroke-linecap="round" stroke-linejoin="round" stroke-width="2.463" d="m38.281 290.636-2.718-26.687"/><path fill="#fff" stroke="#0C2340" stroke-linecap="round" stroke-linejoin="round" stroke-width="1.231" d="M7.536 264.971 0 265.56l11.81 66.784s3.386.051 7.218-1.399L7.534 264.971h.002Z"/><path fill="#2C909A" d="M117.313 134.102c-12.954 13.833-24.522 34.225-19.242 70.594 5.273 36.304 2.727 41.543 2.727 41.543-24.146 12.617-50.892 15.535-50.892 15.535s17.228 37.427 9.933 41.023c23.643-.303 50.933-9.231 58.73-13.506-3.521 22.259-3.27 72.678-3.27 72.678 4.275-11.433 41.311 2.15 41.311 2.15 8.206-29.554 30.921-142.225 28.987-178.958-1.677-31.859-17.542-49.739-17.542-49.739s-32.635 1.194-50.744-1.32h.002Z"/><path stroke="#0C2340" stroke-linecap="round" stroke-linejoin="round" stroke-width="1.231" d="M119.027 289.025c23.267-13.583 28.975-26.249 33.251-49.702 4.275-23.454.689-65.026.689-65.026M101.377 246.308c3.709-1.933 5.753-4.433 5.753-4.433M110.355 151.92c5.953-.466 13.374-1.722 17.482-11.531M164.223 140.391c1.761 4.903 5.869 9.307 11.737 9.809"/><path fill="#E0D2FC" d="M200.698 98.764c-8.033 4.739-18.18 21.304-20.764 29.581-2.849-3.47-5.349-6.975-7.408-9.905 0 0-2.273 9.789-4.465 16.978-9.243 2.704-50.744-1.32-50.744-1.32s-1.32-12.075-4.906-23.581c-3.455 3.563-6.75 7.974-9.735 13.085l-.037-.047c-8.671-10.585-25.628-17.063-30.041-18.543 4.529-8.344 10.321-15.592 16.801-22.594 5.586-6.038 11.541-10.324 17.439-12.562l.397.16c8.866 11.686 45.005 20.737 65.065-.771l.069-.089c11.366 4.884 21.301 17.809 28.329 29.608Z"/><path stroke="#fff" stroke-linecap="round" stroke-linejoin="round" stroke-width="1.231" d="M112.41 110.517c3.709-3.963 7.295-7.357 7.295-7.357M172.523 118.44c1.343-8.741 1.845-20.981 1.845-20.981"/><path fill="#BC8F9D" d="M247.747 63.507c0 16.54-19.21 76.295-40.252 80.571-10.511 2.135-20.301-6.684-27.722-15.73 2.584-8.278 12.731-24.843 20.764-29.581.343.574.678 1.145 1.005 1.714 6.372-13.08 23.454-36.996 23.454-36.996s-3.47-3.207-10.325-5.062c-5.595-1.514-3.787-3.992.395-4.088-8.473-1.68-6.406-3.736-2.488-4.627 3.332-.759 5.376-.966 9.841-1.062 0 0 .412.145-9.144-2.453-4.512-1.226-2.731-3.507 1.089-4.004 4.275-.557 11.013.061 14.289.992 0 0-3.613-3.795-6.339-8.285-3.81-6.277.852-5.524 4.689-2.788 4.339 3.096 20.747 13.792 20.747 31.399h-.003Z"/><path stroke="#0C2340" stroke-linecap="round" stroke-linejoin="round" stroke-width="1.231" d="M201.42 101.094c-1.446 3.061-3.741 9.299-4.369 11.186M215.758 54.629c4.275.064 9.967.93 9.967.93M225.473 63.834c2.027 1.448 3.691 3.596 3.691 3.596M222.312 48.656l4.722.985"/></g><defs><clipPath id="a"><path fill="#fff" d="M0 0h251.483v412.1H0z"/></clipPath></defs></svg>