<svg width="128" height="46" fill="none" viewBox="0 0 158 46">
    <path
        d="M80.2962 27.3018C81.58 28.885 82.286 30.8748 82.2646 32.9073C82.286 34.619 81.8153 36.3092 80.8739 37.7427C79.8897 39.2404 78.4776 40.4171 76.8516 41.1445C74.926 42.0004 72.8293 42.4283 70.7325 42.3855H56.6758V7.19013H70.0693C72.1874 7.12594 74.3055 7.55385 76.2525 8.40966C77.8358 9.09431 79.1837 10.2283 80.1251 11.6618C81.0023 13.0311 81.4516 14.6143 81.4302 16.2404C81.4944 18.059 80.9167 19.8562 79.8255 21.2897C78.6916 22.6804 77.1725 23.7073 75.4609 24.285C77.4079 24.6487 79.1195 25.7185 80.2962 27.3018ZM62.4311 22.1455H69.5558C71.139 22.2525 72.7223 21.7604 73.9846 20.7762C75.0544 19.8134 75.6535 18.4227 75.5679 16.9892C75.6535 15.5129 75.0758 14.1008 73.9846 13.1166C72.7223 12.1111 71.1604 11.619 69.5558 11.7259H62.4311V22.1455ZM74.8618 36.4162C77.1083 34.1483 77.0869 30.4897 74.819 28.2431C74.7976 28.2218 74.7762 28.2004 74.7548 28.2004C73.4283 27.1092 71.7595 26.5529 70.0479 26.6385H62.4525V37.8711H70.219C71.8879 37.9566 73.5353 37.4218 74.819 36.3734L74.8618 36.4162Z"
        fill="white"></path>
    <path
        d="M113.78 14.4863V42.3645H108.003V39.0696C107.062 40.2463 105.821 41.1877 104.43 41.7654C102.975 42.4287 101.371 42.7496 99.7661 42.7496C97.7122 42.7924 95.701 42.3217 93.861 41.3803C92.128 40.4603 90.6945 39.0482 89.7745 37.3366C88.7261 35.3468 88.2127 33.1217 88.2768 30.8752V14.4863H93.9894V30.0194C93.9894 32.5012 94.6099 34.4268 95.8508 35.7533C97.1773 37.1226 99.0387 37.8501 100.964 37.7645C102.89 37.8501 104.751 37.1226 106.099 35.7533C107.361 34.4268 108.003 32.5012 108.003 30.0194V14.4863H113.78Z"
        fill="white"></path>
    <path d="M125.525 4.90235V42.3442H119.77V4.90235H125.525Z" fill="white"></path>
    <path
        d="M131.795 9.71482C130.34 8.28133 130.34 5.92785 131.774 4.49436C132.48 3.78831 133.442 3.40319 134.427 3.40319C135.389 3.3818 136.331 3.76692 136.994 4.47296C138.406 5.94924 138.406 8.25994 136.994 9.73622C136.331 10.4423 135.389 10.8274 134.427 10.806C133.442 10.806 132.501 10.4209 131.795 9.71482ZM137.229 14.486V42.3641H131.453V14.486H137.229Z"
        fill="white"></path>
    <path
        d="M152.335 15.4069C153.811 14.4656 155.566 13.9735 157.32 14.0162V19.9856H155.822C153.554 19.9856 151.843 20.5632 150.687 21.6972C149.532 22.8311 148.954 24.8423 148.933 27.6665V42.3437H143.156V14.4869H148.933V19.3223C149.703 17.739 150.88 16.3911 152.335 15.4069Z"
        fill="white"></path>
    <path
        d="M9.63198 4.76837e-06H36.368C41.6948 4.76837e-06 46 4.3198 46 9.63198V36.368C46 41.6948 41.6802 46 36.368 46H9.63198C4.3052 46 0 41.6802 0 36.368V9.63198C0 4.3198 4.3198 4.76837e-06 9.63198 4.76837e-06Z"
        fill="#31ECC6"></path>
    <path
        d="M28.2685 25.394C27.7286 25.394 27.2907 24.9561 27.3053 24.4162C27.3053 22.8254 27.3053 18.0532 27.247 16.6668C27.1156 12.8724 23.9633 9.89522 19.9062 9.74928C15.9221 9.61794 12.4487 12.5951 12.3174 16.2728C12.2444 18.2429 12.2006 20.3153 12.1861 22.8838C12.6093 22.8838 13.0325 22.8838 13.4411 22.8838C13.8498 22.8838 14.2584 22.8838 14.6378 22.8838H19.5122C20.0522 22.9276 20.4608 23.3946 20.417 23.9346C20.3878 24.4162 19.9938 24.8102 19.5122 24.8394H14.667C14.2876 24.8394 13.8498 24.8394 13.4119 24.8394C12.9741 24.8394 12.4487 24.8394 11.9817 24.8394H11.3104H11.2374C10.9748 24.854 10.7121 24.7518 10.5223 24.5621C10.3326 24.3724 10.2305 24.1243 10.2305 23.8616C10.2305 20.7969 10.2888 18.4181 10.3764 16.1706C10.5515 11.4422 14.9443 7.57479 19.9938 7.76451C25.0433 7.95423 29.0566 11.7341 29.2171 16.5646C29.2755 18.097 29.2901 23.0151 29.2755 24.4016C29.2901 24.9415 28.8523 25.394 28.3123 25.4085C28.2977 25.394 28.2831 25.394 28.2685 25.394Z"
        fill="#0C2340"></path>
    <path
        d="M26.0218 38.2201H10.9901C10.4501 38.1763 10.0415 37.7093 10.0852 37.1693C10.1144 36.6877 10.5085 36.2937 10.9901 36.2645H29.4951C33.0706 36.2353 35.5662 34.6738 36.8797 31.7112C38.1931 28.7486 37.7261 25.9904 35.5224 23.5532C34.4717 22.3419 33.0123 21.5393 31.4215 21.2912C30.8962 21.2036 30.5313 20.7074 30.6043 20.182C30.6772 19.6566 31.188 19.2918 31.7134 19.3648C33.742 19.6858 35.5954 20.6928 36.9526 22.2398C39.6817 25.2607 40.28 28.807 38.6601 32.4993C37.0402 36.1915 33.8587 38.1763 29.4951 38.2201H26.0218Z"
        fill="#0C2340"></path>
    <path
        d="M19.7305 29.4354H10.7844C10.2445 29.4791 9.77747 29.0705 9.73368 28.5305C9.6899 27.9906 10.0985 27.5236 10.6385 27.4798C10.6823 27.4798 10.7407 27.4798 10.7844 27.4798H19.7305C20.2705 27.436 20.7375 27.8446 20.7813 28.3846C20.8251 28.9246 20.4164 29.3916 19.8764 29.4354C19.8181 29.45 19.7743 29.45 19.7305 29.4354Z"
        fill="#0C2340"></path>
    <path
        d="M19.9507 33.4478H10.9901C10.4501 33.404 10.0415 32.937 10.0852 32.397C10.1144 31.9154 10.5085 31.5214 10.9901 31.4922H19.9507C20.4907 31.536 20.8993 32.003 20.8555 32.543C20.8118 33.0246 20.4323 33.4186 19.9507 33.4478Z"
        fill="#0C2340"></path>
</svg>